<?xml version="1.0" standalone="no"?>
<!DOCTYPE svg PUBLIC "-//W3C//DTD SVG 20010904//EN"
 "http://www.w3.org/TR/2001/REC-SVG-20010904/DTD/svg10.dtd">
<svg version="1.0" xmlns="http://www.w3.org/2000/svg"
 width="1200.000000pt" height="1200.000000pt" viewBox="0 0 1200.000000 1200.000000"
 preserveAspectRatio="xMidYMid meet">
<metadata>
Created by potrace 1.14, written by Peter Selinger 2001-2017
</metadata>
<g transform="translate(0.000000,1200.000000) scale(0.100000,-0.100000)"
fill="#000000" stroke="none">
<path d="M0 6000 l0 -6000 6000 0 6000 0 0 6000 0 6000 -6000 0 -6000 0 0
-6000z m6217 590 c126 -44 201 -135 211 -256 8 -109 -40 -204 -135 -264 l-43
-28 52 -30 c63 -36 111 -83 137 -137 l19 -39 257 387 258 387 84 0 83 0 0 -27
1 -28 17 28 c16 26 20 27 94 27 l78 0 2 -372 3 -373 78 -3 77 -3 0 -84 0 -85
-80 0 -80 0 0 -140 0 -140 -205 0 -205 0 0 140 0 140 -229 0 -229 0 -6 -32
c-18 -94 -114 -196 -223 -239 -53 -20 -76 -22 -263 -23 -214 -1 -261 5 -345
47 -50 24 -115 75 -115 89 0 18 113 178 122 172 4 -3 14 -20 22 -38 11 -27 68
-76 88 -76 3 0 22 25 42 55 20 30 40 55 44 55 4 0 14 -15 22 -33 8 -17 34 -45
58 -61 l42 -30 28 20 c37 27 72 99 72 149 0 132 -74 195 -230 195 l-80 0 0 84
0 83 71 6 c134 11 209 72 209 169 0 53 -16 92 -48 122 -21 18 -22 18 -55 -3
-19 -12 -40 -28 -47 -37 -12 -13 -18 -10 -51 22 -44 43 -68 42 -124 -8 l-36
-31 -65 64 -65 64 38 33 c52 46 124 81 197 97 90 19 383 9 453 -15z m-727 -63
l0 -84 -142 -6 c-79 -4 -182 -7 -229 -7 l-86 0 -6 -67 c-4 -38 -7 -87 -7 -110
0 -49 -10 -46 145 -48 136 -1 193 -21 266 -94 72 -72 100 -142 107 -265 11
-214 -74 -360 -249 -428 -45 -17 -83 -21 -232 -24 -203 -5 -276 7 -363 57 -52
29 -124 101 -124 124 0 11 144 135 157 135 4 0 16 -18 26 -40 30 -64 44 -65
112 -9 33 27 63 49 67 49 5 0 8 -10 8 -21 0 -23 69 -99 90 -99 26 0 80 72 96
127 28 97 -1 224 -63 273 -34 27 -46 25 -88 -11 l-36 -32 -60 13 c-33 7 -63
19 -68 27 -6 11 -14 8 -40 -16 l-33 -31 -64 17 c-52 14 -64 21 -64 38 0 11 9
142 20 290 11 149 20 282 20 298 l0 27 420 0 420 0 0 -83z"/>
<path d="M6871 6169 c-78 -123 -86 -135 -74 -124 20 19 135 197 130 201 -2 3
-28 -32 -56 -77z"/>
<path d="M6902 5911 c-27 -48 -27 -47 3 -47 23 0 25 4 25 43 0 24 -1 43 -3 43
-2 0 -13 -17 -25 -39z"/>
<path d="M4833 6365 c0 -38 2 -53 4 -32 2 20 2 52 0 70 -2 17 -4 1 -4 -38z"/>
<path d="M4823 6225 c0 -27 2 -38 4 -22 2 15 2 37 0 50 -2 12 -4 0 -4 -28z"/>
</g>
</svg>
